<svg width="192" height="99" viewBox="0 0 192 99" fill="none" xmlns="http://www.w3.org/2000/svg">
<path opacity="0.25" d="M62.0137 117.25C49.4137 117.25 38.5137 114.85 29.3137 110.05C20.2137 105.15 13.1637 98.3 8.16367 89.5C3.16367 80.7 0.663672 70.45 0.663672 58.75C0.663672 47.05 3.16367 36.8 8.16367 28C13.1637 19.2 20.2137 12.4 29.3137 7.6C38.5137 2.69999 49.4137 0.249993 62.0137 0.249993C74.5137 0.249993 85.3137 2.69999 94.4137 7.6C103.614 12.4 110.714 19.2 115.714 28C120.714 36.8 123.214 47.05 123.214 58.75C123.214 70.45 120.714 80.7 115.714 89.5C110.714 98.3 103.614 105.15 94.4137 110.05C85.3137 114.85 74.5137 117.25 62.0137 117.25ZM62.0137 96.55C73.3137 96.55 82.0637 93.25 88.2637 86.65C94.5637 79.95 97.7137 70.65 97.7137 58.75C97.7137 46.75 94.5637 37.45 88.2637 30.85C82.0637 24.25 73.3137 20.95 62.0137 20.95C50.7137 20.95 41.9137 24.25 35.6137 30.85C29.3137 37.45 26.1637 46.75 26.1637 58.75C26.1637 70.75 29.3137 80.05 35.6137 86.65C41.9137 93.25 50.7137 96.55 62.0137 96.55ZM191.069 2.49999V115H165.869V10.9L178.469 22.3L130.619 30.7V10.9L172.319 2.49999H191.069Z" fill="#FF772D"/>
</svg>
