<svg width="46" height="46" viewBox="0 0 46 46" fill="none" xmlns="http://www.w3.org/2000/svg">
<rect width="46" height="46" rx="23" fill="#F9F9F9"/>
<path d="M18.4708 34.0105C18.2329 34.5909 17.9282 35.1712 17.9398 35.8096C17.9871 36.4696 18.2752 37.0893 18.7494 37.5508C19.2142 38.0581 19.79 38.4512 20.4318 38.6994C21.0735 38.9476 21.764 39.0441 22.4492 38.9814C23.1332 38.9037 23.7838 38.6437 24.333 38.2287C24.8823 37.8137 25.31 37.2589 25.5716 36.6222C25.663 36.3991 25.7122 36.161 25.7167 35.9199C25.693 35.6106 25.6236 35.3064 25.5107 35.0174C25.0933 33.7247 24.9153 32.3666 24.9855 31.01C25.0319 30.1656 25.1073 29.1557 24.437 28.6392C24.2309 28.495 23.9996 28.3906 23.7551 28.3316C22.5714 27.9949 21.3173 27.9949 20.1336 28.3316C18.7929 28.7117 19.1673 29.4314 19.1614 30.5631C19.1529 31.7457 18.9185 32.9158 18.4708 34.0105Z" fill="url(#paint0_linear_1667_3474)"/>
<path d="M21.404 33.1515C22.2745 33.5084 23.3453 33.4765 24.0156 32.841C24.6859 32.2055 24.802 31.2566 24.8862 30.3628L25.0109 29.1353C25.0288 29.0467 25.0197 28.9547 24.9848 28.8712C24.9402 28.8159 24.8836 28.7714 24.8192 28.7412C24.7549 28.7111 24.6845 28.696 24.6134 28.6971C23.5537 28.5788 22.4857 28.5517 21.4214 28.6159C20.7133 28.6594 19.7006 28.6159 19.3349 29.3588C18.6675 30.7516 20.2142 32.6494 21.404 33.1515Z" fill="url(#paint1_linear_1667_3474)"/>
<path d="M15.1405 25.8475C15.5618 26.8921 16.1498 27.8613 16.8816 28.7175C18.6807 30.6878 21.6784 31.3494 24.2436 30.6124C26.8088 29.8753 28.9185 27.8788 30.0792 25.4819C31.2399 23.085 31.5562 20.3253 31.2777 17.6701C31.121 16.2192 30.7698 14.7044 29.8616 13.5437C29.1162 12.6433 28.1418 11.9605 27.041 11.5675C25.0669 10.8062 22.8898 10.7536 20.8814 11.4189C18.8729 12.0841 17.1576 13.4259 16.0285 15.2152C13.8898 18.6103 13.5184 22.1854 15.1405 25.8475Z" fill="url(#paint2_linear_1667_3474)"/>
<path d="M12.7093 21.5676C12.5812 21.7529 12.4956 21.9641 12.4584 22.1863C12.4213 22.4085 12.4337 22.6362 12.4946 22.8531C12.6212 23.2858 12.8388 23.6866 13.133 24.0283C13.2164 24.1609 13.3266 24.2746 13.4565 24.362C13.5865 24.4495 13.7332 24.5088 13.8875 24.5361C14.0376 24.5289 14.1836 24.4852 14.313 24.4089C14.4425 24.3325 14.5514 24.2258 14.6303 24.098C15.5705 22.8095 13.9165 19.9977 12.7093 21.5676Z" fill="url(#paint3_linear_1667_3474)"/>
<path d="M31.7032 20.6684C31.9257 20.6595 32.1463 20.7129 32.3401 20.8226C32.5339 20.9324 32.6932 21.094 32.8001 21.2894C33.0045 21.6885 33.0472 22.1511 32.9191 22.5808C32.7868 23.0074 32.5685 23.4024 32.2777 23.7415C32.0318 24.0826 31.6935 24.3464 31.3027 24.5018C31.1063 24.5738 30.8924 24.5829 30.6906 24.5278C30.4889 24.4726 30.3093 24.356 30.1768 24.1942C30.0903 24.0552 30.0293 23.9019 29.9969 23.7415C29.7386 22.6997 30.4322 20.7845 31.7032 20.6684Z" fill="url(#paint4_linear_1667_3474)"/>
<path d="M15.6231 27.389C15.7788 27.9186 16.0063 28.4244 16.2992 28.8922C16.8593 29.7279 17.7502 30.2967 18.6439 30.7436C19.1223 30.9913 19.6264 31.1859 20.1471 31.3239C20.8834 31.4772 21.6358 31.5396 22.3873 31.5097C23.9833 31.4952 25.5793 31.4023 27.1725 31.2978C27.5229 31.3057 27.8695 31.2238 28.1794 31.0599C28.4469 30.8585 28.6594 30.593 28.7975 30.288C29.6962 28.7257 30.2549 26.9913 30.437 25.1982C30.4525 24.5684 30.4999 23.9398 30.5792 23.3149C30.7446 22.3921 31.1886 21.4867 31.0609 20.5581C30.6605 20.6626 30.4428 21.0804 30.2774 21.4577C29.9437 22.2267 29.6303 23.0044 29.256 23.753C29.0423 24.2191 28.7585 24.6497 28.4144 25.0298C27.57 25.9004 26.2874 26.1906 25.0744 26.2834C24.1481 26.3454 23.2194 26.3608 22.2915 26.3299C20.8406 26.3009 19.2736 26.2254 18.0752 25.3868C16.6242 24.3653 16.1106 22.334 14.593 21.4258C14.4275 21.7159 14.68 22.186 14.7032 22.4965C14.7438 23.0769 14.7903 23.6312 14.8744 24.1941C15.0321 25.2785 15.2826 26.3474 15.6231 27.389Z" fill="url(#paint5_linear_1667_3474)"/>
<path d="M23.7875 27.441L21.8897 27.3771C21.597 27.3474 21.3013 27.375 21.0191 27.4584C20.8778 27.5012 20.7514 27.583 20.6544 27.6944C20.5574 27.8058 20.4938 27.9422 20.4707 28.0881C20.4723 28.3253 20.5553 28.5547 20.7058 28.7381C20.7811 28.8638 20.8796 28.974 20.9959 29.0631C21.2396 29.1925 21.5171 29.2442 21.791 29.2111L25.2036 29.1385C25.2959 29.1438 25.3879 29.1248 25.4706 29.0834C25.5511 29.0257 25.6086 28.9414 25.6331 28.8454C25.7132 28.6025 25.721 28.3416 25.6556 28.0943C25.5901 27.847 25.4543 27.6241 25.2645 27.4526C24.9047 27.1798 24.2373 27.4555 23.7875 27.441Z" fill="url(#paint6_linear_1667_3474)"/>
<path d="M14.7015 22.1218C15.0439 22.0318 15.0787 21.5646 15.0584 21.2106C14.9541 19.4177 15.3425 17.6304 16.1814 16.0424C16.7937 16.5996 17.7513 16.2833 18.5348 16.0134C21.8807 14.8526 25.5283 15.2357 29.0511 15.5462C29.1748 15.5278 29.301 15.5538 29.4073 15.6197C29.5136 15.6856 29.593 15.787 29.6315 15.906C30.4571 17.6224 30.9072 19.4951 30.9518 21.3992C31.242 21.1671 31.8891 20.9842 32.0865 20.7086C32.2257 20.517 32.2054 19.9831 32.307 19.7277C32.5972 19.0197 33.2066 18.5032 33.3807 17.7313C33.7057 16.2804 32.4231 14.8817 32.6494 13.4249C32.7568 12.7256 33.2008 12.1278 33.4155 11.4546C33.5674 10.9697 33.6014 10.4555 33.5146 9.95482C33.4278 9.45414 33.2227 8.98141 32.9164 8.57596C32.4985 8.03621 31.7556 7.62125 31.1434 7.91144C30.9402 8.0043 30.7748 8.1668 30.563 8.26546C29.675 8.70074 28.7609 7.80987 27.8817 7.36008C26.5062 6.65494 24.7941 7.0699 23.4767 7.87662C23.0617 8.13198 22.6264 8.43957 22.1389 8.41926C21.8358 8.37658 21.5417 8.28443 21.2684 8.14649C19.4141 7.41232 17.1768 8.03331 15.7694 9.44361C14.362 10.8539 13.7381 12.9258 13.8542 14.9252C13.8948 15.6216 14.0167 16.3413 13.7903 17C13.4189 18.0911 13.0968 19.7045 13.5437 20.8421C13.6481 21.1119 14.4781 22.1769 14.7015 22.1218Z" fill="url(#paint7_linear_1667_3474)"/>
<defs>
<linearGradient id="paint0_linear_1667_3474" x1="17.9456" y1="33.5288" x2="25.7225" y2="33.5288" gradientUnits="userSpaceOnUse">
<stop stop-color="#E5C6D6"/>
<stop offset="0.42" stop-color="#EAD4D0"/>
<stop offset="1" stop-color="#F0E9CB"/>
</linearGradient>
<linearGradient id="paint1_linear_1667_3474" x1="20.9861" y1="33.5055" x2="24.683" y2="22.7774" gradientUnits="userSpaceOnUse">
<stop stop-color="#010101" stop-opacity="0"/>
<stop offset="0.95" stop-color="#010101"/>
</linearGradient>
<linearGradient id="paint2_linear_1667_3474" x1="14.1364" y1="20.9318" x2="31.3792" y2="20.9318" gradientUnits="userSpaceOnUse">
<stop stop-color="#E5C6D6"/>
<stop offset="0.42" stop-color="#EAD4D0"/>
<stop offset="1" stop-color="#F0E9CB"/>
</linearGradient>
<linearGradient id="paint3_linear_1667_3474" x1="12.4423" y1="22.8212" x2="14.9089" y2="22.8212" gradientUnits="userSpaceOnUse">
<stop stop-color="#E5C6D6"/>
<stop offset="0.42" stop-color="#EAD4D0"/>
<stop offset="1" stop-color="#F0E9CB"/>
</linearGradient>
<linearGradient id="paint4_linear_1667_3474" x1="29.9447" y1="22.6098" x2="32.9887" y2="22.6098" gradientUnits="userSpaceOnUse">
<stop stop-color="#E5C6D6"/>
<stop offset="0.42" stop-color="#EAD4D0"/>
<stop offset="1" stop-color="#F0E9CB"/>
</linearGradient>
<linearGradient id="paint5_linear_1667_3474" x1="14.532" y1="26.0339" x2="31.0841" y2="26.0339" gradientUnits="userSpaceOnUse">
<stop stop-color="#010101" stop-opacity="0"/>
<stop offset="0.95" stop-color="#010101"/>
</linearGradient>
<linearGradient id="paint6_linear_1667_3474" x1="20.4649" y1="28.2709" x2="25.6969" y2="28.2709" gradientUnits="userSpaceOnUse">
<stop stop-color="#E5C6D6"/>
<stop offset="0.42" stop-color="#EAD4D0"/>
<stop offset="1" stop-color="#F0E9CB"/>
</linearGradient>
<linearGradient id="paint7_linear_1667_3474" x1="13.3231" y1="14.5596" x2="33.5519" y2="14.5596" gradientUnits="userSpaceOnUse">
<stop stop-color="#010101" stop-opacity="0"/>
<stop offset="0.95" stop-color="#010101"/>
</linearGradient>
</defs>
</svg>
