<svg width="85" height="85" viewBox="0 0 85 85" fill="none" xmlns="http://www.w3.org/2000/svg">
<g filter="url(#filter0_f_580_11432)">
<rect x="18.7344" y="2" width="66.5742" height="66.5742" rx="16.6435" transform="rotate(14.559 18.7344 2)" fill="#1877F2" fill-opacity="0.1"/>
<g clip-path="url(#clip0_580_11432)">
<path d="M64.0628 48.1644C67.1437 36.3021 60.0248 24.1881 48.1624 21.1072C36.3 18.0264 24.186 25.1452 21.1052 37.0076C18.3209 47.7281 23.8675 58.6541 33.7173 62.9322L37.6154 47.9231L32.1618 46.5067L33.7743 40.298L39.2279 41.7144L40.4569 36.9824C41.855 31.5992 45.834 29.4586 50.7402 30.7328C53.0894 31.343 55.4392 32.401 55.4392 32.401L54.0663 37.6868L51.358 36.9834C48.6899 36.2905 47.4276 37.7302 46.986 39.4304L45.94 43.4577L51.897 45.0048L49.3323 50.9662L44.3275 49.6664L40.4294 64.6755C51.1162 65.7311 61.2785 58.885 64.0628 48.1644Z" fill="#1877F2"/>
<path d="M49.3305 50.9663L51.8953 45.0049L45.9383 43.4578L46.9843 39.4305C47.4254 37.7319 48.6882 36.2906 51.3563 36.9836L54.0646 37.687L55.4374 32.4012C55.4374 32.4012 53.0885 31.3433 50.7384 30.7329C45.8322 29.4587 41.8533 31.5994 40.4552 36.9825L39.2262 41.7145L33.7725 40.2981L32.16 46.5068L37.6137 47.9232L33.7155 62.9324C35.849 63.8579 38.1134 64.446 40.4277 64.6756L44.3258 49.6665L49.3305 50.9663Z" fill="white"/>
</g>
</g>
<defs>
<filter id="filter0_f_580_11432" x="-3" y="-3" width="91.1699" height="91.1719" filterUnits="userSpaceOnUse" color-interpolation-filters="sRGB">
<feFlood flood-opacity="0" result="BackgroundImageFix"/>
<feBlend mode="normal" in="SourceGraphic" in2="BackgroundImageFix" result="shape"/>
<feGaussianBlur stdDeviation="2.5" result="effect1_foregroundBlur_580_11432"/>
</filter>
<clipPath id="clip0_580_11432">
<rect width="44.3828" height="44.3828" fill="white" transform="translate(26.6836 15.5288) rotate(14.559)"/>
</clipPath>
</defs>
</svg>
