<svg width="48" height="48" viewBox="0 0 48 48" fill="none" xmlns="http://www.w3.org/2000/svg">
<rect width="48" height="48" rx="12" fill="black" fill-opacity="0.1"/>
<g clip-path="url(#clip0_1667_5868)">
<path d="M24.0055 8.24414C17.4258 8.24414 15.5015 8.25093 15.1274 8.28196C13.7771 8.3942 12.9369 8.6068 12.0216 9.06254C11.3161 9.41283 10.7598 9.81888 10.2107 10.3881C9.21074 11.4261 8.60469 12.7032 8.38531 14.2212C8.27864 14.9581 8.24762 15.1084 8.24131 18.8726C8.23889 20.1274 8.24131 21.7788 8.24131 23.9937C8.24131 30.568 8.24858 32.4904 8.2801 32.8638C8.38919 34.1776 8.59524 35.0043 9.03159 35.9085C9.86551 37.6394 11.4582 38.9387 13.3345 39.4236C13.9842 39.5908 14.7017 39.683 15.6229 39.7266C16.0132 39.7436 19.9913 39.7556 23.9717 39.7556C27.9523 39.7556 31.9327 39.7508 32.3133 39.7314C33.3799 39.6812 33.9993 39.5981 34.6841 39.4211C36.5726 38.9339 38.1362 37.6539 38.9871 35.8988C39.4149 35.0164 39.6319 34.1582 39.7301 32.913C39.7514 32.6414 39.7603 28.3126 39.7603 23.9896C39.7603 19.6658 39.7507 15.345 39.7293 15.0735C39.6299 13.8081 39.413 12.9572 38.9713 12.0578C38.6089 11.3216 38.2065 10.7718 37.6223 10.2097C36.5796 9.21381 35.3045 8.60777 33.785 8.38862C33.0488 8.2822 32.9021 8.25069 29.135 8.24414H24.0055Z" fill="#15191E"/>
<path d="M24.7428 19.7319H13.5723V31.7843H16.6814V27.8632H22.639L25.3572 31.7843H28.8386L25.8412 27.8452C26.7721 27.7007 27.4423 27.3573 27.8519 26.8152C28.2614 26.2732 28.4663 25.4058 28.4663 24.2493V23.3459C28.4663 22.6592 28.3919 22.1171 28.2614 21.7015C28.1312 21.2859 27.9078 20.9245 27.5913 20.5993C27.2562 20.2921 26.8838 20.0753 26.437 19.9307C25.9902 19.8042 25.4316 19.7319 24.7428 19.7319ZM24.2402 25.207H16.6814V22.3881H24.2402C24.6683 22.3881 24.9662 22.4605 25.1152 22.5869C25.264 22.7134 25.3572 22.9483 25.3572 23.2917V24.3036C25.3572 24.665 25.264 24.8999 25.1152 25.0263C24.9662 25.1528 24.6683 25.207 24.2402 25.207Z" fill="white"/>
<path d="M32.6013 19.1313C33.7631 19.1313 34.7056 18.1866 34.7056 17.0212C34.7056 15.8559 33.7631 14.9111 32.6013 14.9111C31.4386 14.9111 30.4961 15.8559 30.4961 17.0212C30.4961 18.1866 31.4386 19.1313 32.6013 19.1313Z" fill="#F41240"/>
</g>
<defs>
<clipPath id="clip0_1667_5868">
<rect width="32" height="32" fill="white" transform="translate(8 8)"/>
</clipPath>
</defs>
</svg>
