<svg width="68" height="68" viewBox="0 0 68 68" fill="none" xmlns="http://www.w3.org/2000/svg">
<rect x="7.30469" width="60.5335" height="60.5335" rx="15.1334" transform="rotate(6.93171 7.30469 0)" fill="#26A5E5" fill-opacity="0.1"/>
<g clip-path="url(#clip0_580_11436)">
<path d="M31.2615 53.7288C42.324 55.0737 52.3822 47.1961 53.7271 36.1336C55.072 25.0712 47.1944 15.013 36.1319 13.6681C25.0695 12.3232 15.0113 20.2008 13.6664 31.2633C12.3215 42.3257 20.1991 52.3839 31.2615 53.7288Z" fill="url(#paint0_linear_580_11436)"/>
<path fill-rule="evenodd" clip-rule="evenodd" d="M22.7589 32.1544C28.9075 30.3202 33.0051 29.1163 35.0519 28.5429C40.8958 26.9054 42.1005 26.6441 42.8555 26.7224C43.0216 26.7396 43.3871 26.8257 43.6034 27.0496C43.7861 27.2387 43.8148 27.4676 43.8226 27.6267C43.8303 27.7858 43.8203 28.1451 43.7602 28.4194C43.0737 31.5499 40.8349 39.0775 39.74 42.5442C39.2768 44.0111 38.6627 44.4472 38.1215 44.4314C36.9453 44.397 36.1685 43.4138 35.1316 42.5384C33.5092 41.1684 32.6007 40.328 31.0266 38.9923C29.2074 37.4486 30.5765 36.8882 31.8459 35.8546C32.1781 35.5841 37.8699 31.5455 38.0205 31.1347C38.0394 31.0833 38.0749 30.8876 37.9703 30.7693C37.8659 30.6509 37.6887 30.6655 37.5605 30.6786C37.3789 30.6973 34.3362 32.2163 28.4327 35.2359C27.5666 35.6876 26.81 35.8671 26.1629 35.7742C25.4496 35.6718 24.1212 35.1156 23.1389 34.6588C21.934 34.0986 20.9633 33.7618 21.1343 33.0798C21.2233 32.7246 21.7649 32.4162 22.7589 32.1544Z" fill="white"/>
</g>
<defs>
<linearGradient id="paint0_linear_580_11436" x1="36.1319" y1="13.6681" x2="31.2977" y2="53.4317" gradientUnits="userSpaceOnUse">
<stop stop-color="#2AABEE"/>
<stop offset="1" stop-color="#229ED9"/>
</linearGradient>
<clipPath id="clip0_580_11436">
<rect width="40.3557" height="40.3557" fill="white" transform="translate(16.1016 11.2329) rotate(6.93171)"/>
</clipPath>
</defs>
</svg>
