<svg width="130" height="131" viewBox="0 0 130 131" fill="none" xmlns="http://www.w3.org/2000/svg">
<path opacity="0.7" d="M128.555 56.159C129.452 54.568 129.723 52.7018 129.314 50.9239C128.905 49.1451 127.846 47.5816 126.341 46.5336L118.252 40.8783H118.253C117.809 40.5666 117.559 40.0508 117.588 39.5127L118.179 29.7038C118.293 27.8834 117.721 26.0863 116.576 24.6609C115.431 23.2344 113.794 22.281 111.982 21.9855L102.219 20.3742H102.218C101.682 20.2879 101.229 19.9305 101.025 19.43L97.2708 10.3398C96.5775 8.65133 95.2768 7.27768 93.6221 6.48675C91.9676 5.6948 90.0748 5.54149 88.313 6.05523L78.8165 8.80986C78.295 8.96317 77.7295 8.83524 77.3266 8.47277L69.9712 1.89965C68.6081 0.677221 66.8358 0 64.9995 0C63.1631 0 61.3909 0.677221 60.0278 1.89965L52.6744 8.47277C52.2715 8.83421 51.7071 8.96215 51.1856 8.80986L41.6859 6.05523H41.6869C39.924 5.54147 38.0322 5.6948 36.3778 6.48571C34.7223 7.27766 33.4226 8.65035 32.7284 10.3388L28.9745 19.43C28.7669 19.9285 28.3159 20.2849 27.7811 20.3742L18.0218 21.9855C16.2077 22.281 14.5694 23.2333 13.4244 24.6598C12.2781 26.0864 11.7065 27.8844 11.82 29.7049L12.4111 39.5117C12.4458 40.0508 12.1943 40.5686 11.7484 40.8773L3.65793 46.5336C2.15373 47.5814 1.09536 49.1451 0.686226 50.9239C0.277198 52.7017 0.547156 54.568 1.44496 56.159L6.26325 64.7405C6.52911 65.2116 6.52911 65.7863 6.26325 66.2574L1.44496 74.8399V74.8389C0.547143 76.4309 0.277198 78.2972 0.686226 80.075C1.09423 81.8528 2.15362 83.4173 3.65793 84.4653L11.7484 90.1227V90.1217C12.1943 90.4304 12.4458 90.9482 12.4111 91.4863L11.82 101.295C11.7075 103.116 12.2781 104.913 13.4244 106.339C14.5697 107.765 16.2069 108.718 18.0199 109.013L27.7814 110.625C28.3162 110.714 28.7671 111.07 28.9747 111.569L32.7286 120.659C33.4219 122.348 34.7226 123.721 36.3773 124.512C38.0328 125.304 39.9246 125.458 41.6875 124.944L51.1871 122.189H51.1861C51.7076 122.035 52.2731 122.163 52.675 122.526L60.0283 129.099C61.3914 130.323 63.1636 131 65 131C66.8375 131 68.6097 130.323 69.9717 129.099L77.3282 122.526C77.7301 122.163 78.2945 122.035 78.816 122.189L88.3136 124.944C90.0755 125.458 91.9672 125.303 93.6217 124.512C95.2772 123.72 96.5769 122.348 97.2711 120.66L101.023 111.571C101.228 111.071 101.681 110.711 102.218 110.625L111.981 109.014H111.982C113.794 108.718 115.432 107.765 116.577 106.338C117.722 104.912 118.293 103.115 118.18 101.294L117.589 91.4874C117.559 90.9493 117.809 90.4335 118.251 90.1208L126.342 84.4644V84.4654C127.846 83.4176 128.905 81.853 129.314 80.0751C129.722 78.2973 129.452 76.431 128.556 74.839L123.737 66.2565L123.736 66.2575C123.47 65.7864 123.47 65.2127 123.736 64.7416L128.555 56.159ZM49.1187 36.2385C52.7234 36.2385 56.1796 37.6609 58.7278 40.1911C61.276 42.7222 62.7076 46.1539 62.7076 49.7319C62.7076 53.311 61.2749 56.7428 58.7267 59.2728C56.1785 61.8029 52.7221 63.2244 49.1176 63.2244C45.5129 63.2244 42.0567 61.8029 39.5085 59.2728C36.9604 56.7427 35.5287 53.3108 35.5287 49.7319C35.5328 46.1539 36.9654 42.7242 39.5138 40.1952C42.062 37.6651 45.5163 36.2426 49.1187 36.2385ZM80.8802 94.7595C77.2755 94.7595 73.8193 93.338 71.2701 90.8068C68.7218 88.2767 67.2903 84.8448 67.2903 81.266C67.2903 77.6879 68.7219 74.2551 71.2701 71.7251C73.8194 69.1949 77.2755 67.7735 80.8792 67.7735C84.4838 67.7735 87.9401 69.195 90.4893 71.7251C93.0376 74.2563 94.4691 77.6879 94.4691 81.267C94.465 84.844 93.0314 88.2726 90.4841 90.8029C87.9368 93.3321 84.4825 94.7545 80.88 94.7597L80.8802 94.7595ZM93.9139 42.9652L42.3017 94.2084C41.1902 95.308 39.5724 95.7354 38.057 95.3313C36.5415 94.9273 35.3575 93.7515 34.9515 92.2469C34.5445 90.7422 34.9761 89.1369 36.0835 88.0333L87.693 36.7901C88.8046 35.6875 90.4234 35.257 91.9409 35.66C93.4584 36.0641 94.6435 37.2409 95.0495 38.7476C95.4565 40.2544 95.0229 41.8615 93.9124 42.9643L93.9139 42.9652Z" fill="#FF772D"/>
</svg>
