<svg width="353" height="326" viewBox="0 0 353 326" fill="none" xmlns="http://www.w3.org/2000/svg">
<path opacity="0.7" d="M128.555 243.159C129.452 241.568 129.723 239.702 129.314 237.924C128.905 236.145 127.846 234.582 126.341 233.534L118.252 227.878H118.253C117.809 227.567 117.559 227.051 117.588 226.513L118.179 216.704C118.293 214.883 117.721 213.086 116.576 211.661C115.431 210.234 113.794 209.281 111.982 208.986L102.219 207.374H102.218C101.682 207.288 101.229 206.931 101.025 206.43L97.2708 197.34C96.5775 195.651 95.2768 194.278 93.6221 193.487C91.9676 192.695 90.0748 192.541 88.313 193.055L78.8165 195.81C78.295 195.963 77.7295 195.835 77.3266 195.473L69.9712 188.9C68.6081 187.677 66.8358 187 64.9995 187C63.1631 187 61.3909 187.677 60.0278 188.9L52.6744 195.473C52.2715 195.834 51.7071 195.962 51.1856 195.81L41.6859 193.055H41.6869C39.924 192.541 38.0322 192.695 36.3778 193.486C34.7223 194.278 33.4226 195.65 32.7284 197.339L28.9745 206.43C28.7669 206.929 28.3159 207.285 27.7811 207.374L18.0218 208.986C16.2077 209.281 14.5694 210.233 13.4244 211.66C12.2781 213.086 11.7065 214.884 11.82 216.705L12.4111 226.512C12.4458 227.051 12.1943 227.569 11.7484 227.877L3.65793 233.534C2.15373 234.581 1.09536 236.145 0.686226 237.924C0.277198 239.702 0.547156 241.568 1.44496 243.159L6.26325 251.741C6.52911 252.212 6.52911 252.786 6.26325 253.257L1.44496 261.84V261.839C0.547143 263.431 0.277198 265.297 0.686226 267.075C1.09423 268.853 2.15362 270.417 3.65793 271.465L11.7484 277.123V277.122C12.1943 277.43 12.4458 277.948 12.4111 278.486L11.82 288.295C11.7075 290.116 12.2781 291.913 13.4244 293.339C14.5697 294.765 16.2069 295.718 18.0199 296.013L27.7814 297.625C28.3162 297.714 28.7671 298.07 28.9747 298.569L32.7286 307.659C33.4219 309.348 34.7226 310.721 36.3773 311.512C38.0328 312.304 39.9246 312.458 41.6875 311.944L51.1871 309.189H51.1861C51.7076 309.035 52.2731 309.163 52.675 309.526L60.0283 316.099C61.3914 317.323 63.1636 318 65 318C66.8375 318 68.6097 317.323 69.9717 316.099L77.3282 309.526C77.7301 309.163 78.2945 309.035 78.816 309.189L88.3136 311.944C90.0755 312.458 91.9672 312.303 93.6217 311.512C95.2772 310.72 96.5769 309.348 97.2711 307.66L101.023 298.571C101.228 298.071 101.681 297.711 102.218 297.625L111.981 296.014H111.982C113.794 295.718 115.432 294.765 116.577 293.338C117.722 291.912 118.293 290.115 118.18 288.294L117.589 278.487C117.559 277.949 117.809 277.433 118.251 277.121L126.342 271.464V271.465C127.846 270.418 128.905 268.853 129.314 267.075C129.722 265.297 129.452 263.431 128.556 261.839L123.737 253.256L123.736 253.257C123.47 252.786 123.47 252.213 123.736 251.742L128.555 243.159ZM49.1187 223.238C52.7234 223.238 56.1796 224.661 58.7278 227.191C61.276 229.722 62.7076 233.154 62.7076 236.732C62.7076 240.311 61.2749 243.743 58.7267 246.273C56.1785 248.803 52.7221 250.224 49.1176 250.224C45.5129 250.224 42.0567 248.803 39.5085 246.273C36.9604 243.743 35.5287 240.311 35.5287 236.732C35.5328 233.154 36.9654 229.724 39.5138 227.195C42.062 224.665 45.5163 223.243 49.1187 223.238ZM80.8802 281.759C77.2755 281.759 73.8193 280.338 71.2701 277.807C68.7218 275.277 67.2903 271.845 67.2903 268.266C67.2903 264.688 68.7219 261.255 71.2701 258.725C73.8194 256.195 77.2755 254.774 80.8792 254.774C84.4838 254.774 87.9401 256.195 90.4893 258.725C93.0376 261.256 94.4691 264.688 94.4691 268.267C94.465 271.844 93.0314 275.273 90.4841 277.803C87.9368 280.332 84.4825 281.755 80.88 281.76L80.8802 281.759ZM93.9139 229.965L42.3017 281.208C41.1902 282.308 39.5724 282.735 38.057 282.331C36.5415 281.927 35.3575 280.752 34.9515 279.247C34.5445 277.742 34.9761 276.137 36.0835 275.033L87.693 223.79C88.8046 222.687 90.4234 222.257 91.9409 222.66C93.4584 223.064 94.6435 224.241 95.0495 225.748C95.4565 227.254 95.0229 228.861 93.9124 229.964L93.9139 229.965Z" fill="#FF772D"/>
<g filter="url(#filter0_d_1667_2104)">
<path d="M190 283C260.416 283 317.5 225.692 317.5 155C317.5 84.3077 260.416 27 190 27C119.584 27 62.5 84.3077 62.5 155C62.5 225.692 119.584 283 190 283Z" fill="url(#paint0_linear_1667_2104)"/>
<path fill-rule="evenodd" clip-rule="evenodd" d="M120.214 153.649C157.383 137.391 182.168 126.674 194.569 121.495C229.977 106.71 237.335 104.142 242.13 104.057C243.185 104.038 245.543 104.301 247.071 105.545C248.361 106.596 248.716 108.015 248.886 109.011C249.056 110.007 249.267 112.277 249.099 114.051C247.18 134.29 238.877 183.407 234.653 206.076C232.866 215.668 229.347 218.884 225.94 219.199C218.536 219.883 212.914 214.286 205.742 209.567C194.521 202.182 188.181 197.586 177.288 190.379C164.7 182.051 172.861 177.474 180.035 169.994C181.912 168.036 214.535 138.246 215.167 135.544C215.246 135.206 215.319 133.946 214.573 133.281C213.828 132.616 212.728 132.843 211.933 133.024C210.808 133.281 192.881 145.176 158.153 168.71C153.065 172.218 148.456 173.927 144.326 173.838C139.774 173.739 131.017 171.254 124.507 169.129C116.522 166.524 110.176 165.146 110.729 160.721C111.017 158.415 114.178 156.059 120.214 153.649Z" fill="white"/>
</g>
<defs>
<filter id="filter0_d_1667_2104" x="27.5" y="0" width="325" height="326" filterUnits="userSpaceOnUse" color-interpolation-filters="sRGB">
<feFlood flood-opacity="0" result="BackgroundImageFix"/>
<feColorMatrix in="SourceAlpha" type="matrix" values="0 0 0 0 0 0 0 0 0 0 0 0 0 0 0 0 0 0 127 0" result="hardAlpha"/>
<feOffset dy="8"/>
<feGaussianBlur stdDeviation="17.5"/>
<feComposite in2="hardAlpha" operator="out"/>
<feColorMatrix type="matrix" values="0 0 0 0 0.141176 0 0 0 0 0.635294 0 0 0 0 0.878431 0 0 0 0.2 0"/>
<feBlend mode="normal" in2="BackgroundImageFix" result="effect1_dropShadow_1667_2104"/>
<feBlend mode="normal" in="SourceGraphic" in2="effect1_dropShadow_1667_2104" result="shape"/>
</filter>
<linearGradient id="paint0_linear_1667_2104" x1="190" y1="27" x2="190" y2="281.101" gradientUnits="userSpaceOnUse">
<stop stop-color="#2AABEE"/>
<stop offset="1" stop-color="#229ED9"/>
</linearGradient>
</defs>
</svg>
