<svg width="143" height="143" viewBox="0 0 143 143" fill="none" xmlns="http://www.w3.org/2000/svg">
<rect x="35.0586" width="112.872" height="112.872" rx="28.2179" transform="rotate(18.0961 35.0586 0)" fill="black" fill-opacity="0.1"/>
<g clip-path="url(#clip0_580_11414)">
<path d="M112.663 45.1497L53.0581 25.6723C49.7663 24.5966 46.2256 26.3932 45.1499 29.6851L25.6725 89.2898C24.5968 92.5817 26.3934 96.1223 29.6853 97.198L89.29 116.675C92.5819 117.751 96.1225 115.955 97.1982 112.663L116.676 53.0579C117.751 49.7661 115.955 46.2254 112.663 45.1497Z" fill="black"/>
<path d="M67.2064 65.2004L67.811 63.3503C67.2048 63.0583 66.5776 62.7948 65.9121 62.5774C57.9817 59.9744 49.4158 64.3253 46.8176 72.2763C45.2248 77.1506 46.2449 82.2585 49.1101 86.0854C47.5516 82.7323 47.213 78.795 48.4499 75.0098C51.0102 67.1749 59.3722 62.8393 67.2064 65.2004Z" fill="#25F4EE"/>
<path d="M60.6998 86.2918C64.2388 87.4483 68.0559 85.5711 69.3299 82.1024L79.5918 50.7348L85.3175 52.6059C85.4121 51.9229 85.5664 51.2361 85.7875 50.5594L77.9698 48.0048L67.7079 79.3723C66.4342 82.8411 62.617 84.7182 59.078 83.5618C57.9793 83.2028 57.0338 82.5895 56.2736 81.8028C56.9144 83.8494 58.5023 85.5737 60.6998 86.2918Z" fill="#25F4EE"/>
<path d="M92.5393 66.7497L93.1094 65.0052C90.9226 64.2906 89.1049 62.9827 87.7598 61.3027C88.7109 63.5445 90.3562 65.4864 92.5393 66.7497Z" fill="#25F4EE"/>
<path d="M87.7605 61.3027C86.7166 58.8435 86.5284 56.0204 87.4198 53.2924L85.3281 52.6089C84.8924 55.7667 85.8314 58.9054 87.7605 61.3027Z" fill="#FE2C55"/>
<path d="M63.367 70.3944C59.7434 69.2103 55.8319 71.1971 54.6468 74.8238C53.821 77.3509 54.5392 80.0195 56.2716 81.8028C55.8422 80.4687 55.8093 78.9952 56.2792 77.5573C57.4643 73.9306 61.3757 71.9438 64.9994 73.1279C65.6755 73.3489 66.2924 73.6791 66.8429 74.0698L69.4549 66.0765C68.8487 65.7847 68.2217 65.5211 67.5562 65.3036C67.44 65.2656 67.3308 65.2418 67.2146 65.2039L65.2107 71.3363C64.6495 70.9423 64.0431 70.6153 63.367 70.3944Z" fill="#FE2C55"/>
<path d="M92.5372 66.7502L90.5506 72.8298C86.4938 71.5041 83.1579 68.9747 80.8128 65.7743L75.6128 81.6871C73.0181 89.6276 64.4488 93.9892 56.5044 91.3932C53.4407 90.392 50.9062 88.4872 49.107 86.0854C50.8151 89.7679 53.9849 92.7699 58.1368 94.1267C66.0705 96.7192 74.6471 92.3716 77.2453 84.4204L82.4452 68.5078C84.7902 71.7082 88.1262 74.2376 92.1828 75.5632L94.7396 67.739C93.9472 67.4801 93.2143 67.1469 92.5372 66.7502Z" fill="#FE2C55"/>
<path d="M75.6134 81.6867L80.8134 65.7738C83.1584 68.9742 86.4943 71.5038 90.551 72.8294L92.5377 66.7497C90.3547 65.4866 88.7093 63.5445 87.7583 61.3028C85.8289 58.9054 84.9008 55.7702 85.3152 52.6055L79.5894 50.7344L69.3276 82.1017C68.0537 85.5707 64.2365 87.4478 60.6976 86.2914C58.5002 85.5733 56.9227 83.8526 56.2574 81.8096C54.5284 80.0157 53.8068 77.3577 54.6326 74.8306C55.8177 71.204 59.7291 69.2171 63.3528 70.4013C64.0288 70.6222 64.6459 70.9526 65.1964 71.3431L67.2004 65.2107C59.3697 62.839 51.0076 67.1746 48.4474 75.0095C47.2105 78.7947 47.5524 82.7215 49.1076 86.085C50.9068 88.4868 53.4413 90.3916 56.505 91.3927C64.4388 93.9853 73.0187 89.6272 75.6134 81.6867Z" fill="white"/>
</g>
<defs>
<clipPath id="clip0_580_11414">
<rect width="75.2477" height="75.2477" fill="white" transform="translate(47.0977 23.7246) rotate(18.0961)"/>
</clipPath>
</defs>
</svg>
