<svg width="97" height="97" viewBox="0 0 97 97" fill="none" xmlns="http://www.w3.org/2000/svg">
<g clip-path="url(#clip0_580_11441)">
<path d="M75.6271 39.0937L66.8579 52.8303L55.605 55.314L47.9319 67.3336L45.7586 57.4873L33.0991 60.2815L23.7852 18.083L68.7968 8.14813L75.6271 39.0937Z" fill="white"/>
<path d="M19.7302 13.0789L8.76871 30.2497L19.9455 80.8879L36.8248 77.1623L39.9295 91.2284L50.891 74.0576L62.1439 71.5739L81.8746 40.6665L73.1816 1.28127L19.7302 13.0789ZM75.6272 39.0951L66.858 52.8318L55.6051 55.3155L47.932 67.335L45.7588 57.4887L33.0993 60.2829L23.7853 18.0845L68.797 8.14959L75.6272 39.0951Z" fill="#9146FF"/>
<path d="M62.5288 19.8592L56.9023 21.1011L60.6279 37.9805L66.2544 36.7386L62.5288 19.8592Z" fill="#9146FF"/>
<path d="M47.0581 23.2738L41.4316 24.5156L45.1572 41.395L50.7837 40.1531L47.0581 23.2738Z" fill="#9146FF"/>
</g>
<defs>
<clipPath id="clip0_580_11441">
<rect width="80.6667" height="80.6667" fill="white" transform="translate(0.0390625 17.4253) rotate(-12.4466)"/>
</clipPath>
</defs>
</svg>
