<svg width="113" height="113" viewBox="0 0 113 113" fill="none" xmlns="http://www.w3.org/2000/svg">
<g clip-path="url(#clip0_580_11429)">
<path d="M6.90828 60.5681C3.98129 38.1255 2.51781 26.9044 8.58049 19.0231C14.6432 11.1419 25.8643 9.67838 48.3068 6.75138L52.2741 6.23396C74.7167 3.30697 85.9377 1.8435 93.8191 7.90616C101.7 13.9688 103.164 25.19 106.091 47.6325L106.608 51.5998C109.535 74.0423 110.999 85.2634 104.936 93.1448C98.8733 101.026 87.6522 102.49 65.2097 105.417L61.2424 105.934C38.7999 108.861 27.5787 110.324 19.6975 104.262C11.8162 98.199 10.3527 86.9779 7.42571 64.5354L6.90828 60.5681Z" fill="#0077FF"/>
<path d="M62.7916 77.5302C40.1863 80.4784 25.2716 66.6627 21.3711 40.9453L32.6944 39.4685C35.5349 58.3473 44.9282 65.2759 51.7559 66.0665L48.0262 37.4689L58.6887 36.0783L60.8177 52.4021C67.2556 50.8479 73.1447 42.5147 74.3918 34.0303L85.0541 32.6397C84.5922 42.955 78.1237 51.3638 73.2328 55.1119C78.8459 56.9015 88.1644 62.2848 92.9185 73.601L81.1815 75.1317C77.6366 67.6085 70.5633 62.3528 62.149 62.6096L64.0732 77.363L62.7916 77.5302Z" fill="white"/>
</g>
<defs>
<clipPath id="clip0_580_11429">
<rect width="100.023" height="100.023" fill="white" transform="translate(0.699219 12.9604) rotate(-7.43067)"/>
</clipPath>
</defs>
</svg>
