<svg width="75" height="75" viewBox="0 0 75 75" fill="none" xmlns="http://www.w3.org/2000/svg">
<g clip-path="url(#clip0_580_11425)">
<path d="M68.5816 32.5765C68.6328 31.2734 68.3416 29.98 67.7368 28.8258C67.1321 27.6716 66.2351 26.697 65.1356 25.9996C61.0833 23.4488 43.4205 18.0114 43.4205 18.0114C43.4205 18.0114 25.7578 12.574 20.9724 12.4041C19.6711 12.3624 18.3813 12.6638 17.2322 13.2781C16.083 13.8924 15.1148 14.7981 14.4244 15.9044C11.8737 19.9872 9.01908 29.26 9.01908 29.26C9.01908 29.26 6.16446 38.5329 5.97741 43.3432C5.92607 44.6464 6.21735 45.9398 6.82211 47.0939C7.42682 48.2482 8.32379 49.2228 9.42323 49.9202C13.4756 52.471 31.1384 57.9084 31.1384 57.9084C31.1384 57.9084 48.8011 63.3458 53.5865 63.5157C54.8878 63.5573 56.1776 63.2559 57.3267 62.6416C58.4759 62.0274 59.4441 61.1217 60.1346 60.0153C62.6852 55.9326 65.5398 46.6597 65.5398 46.6597C65.5398 46.6597 68.3944 37.3869 68.5816 32.5765Z" fill="#FF0000"/>
<path d="M27.9095 43.2744L45.2741 39.4019L33.0938 26.4341L27.9095 43.2744Z" fill="white"/>
</g>
<defs>
<clipPath id="clip0_580_11425">
<rect width="59.1384" height="59.1384" fill="white" transform="translate(17.8789 0.47998) rotate(17.1108)"/>
</clipPath>
</defs>
</svg>
